<svg width="251" height="232" viewBox="0 0 251 232" fill="none" xmlns="http://www.w3.org/2000/svg">
<path d="M179.383 54.6252C179.383 84.6419 155.046 108.999 125.029 108.999C94.9935 108.999 70.6557 84.6607 70.6557 54.6252C70.6557 24.5898 94.9935 0.251953 125.029 0.251953C155.046 0.251953 179.383 24.5898 179.383 54.6252ZM54.3928 122.582C24.3762 122.582 0.0195312 146.92 0.0195312 176.937C0.0195312 206.953 24.3573 231.31 54.3928 231.31C84.4282 231.31 108.766 206.972 108.766 176.937C108.766 146.92 84.4282 122.582 54.3928 122.582ZM195.646 122.582C165.611 122.582 141.273 146.92 141.273 176.956C141.273 206.991 165.611 231.329 195.646 231.329C225.663 231.329 250.02 206.991 250.02 176.956C250.02 146.92 225.682 122.582 195.646 122.582Z" fill="white"/>
</svg>
