<svg width="751" height="495" viewBox="0 0 751 495" fill="none" xmlns="http://www.w3.org/2000/svg">
<path d="M115.339 475.415C115.961 482.444 121.575 491.358 131.304 491.358H137.004C139.211 491.358 141.011 489.558 141.011 487.351V362.186H140.989C140.882 360.086 139.125 358.394 137.004 358.394H119.346C117.204 358.394 115.468 360.086 115.361 362.186H115.339V372.365C104.518 359.036 87.4822 353.529 70.3822 353.529C31.5107 353.508 0.0107422 385.008 0.0107422 423.858C0.0107422 462.729 31.5107 494.229 70.3822 494.229C87.4607 494.229 106.104 487.608 115.339 475.415ZM70.4465 469.608C45.7393 469.608 25.7036 449.122 25.7036 423.858C25.7036 398.594 45.7393 378.129 70.4465 378.129C95.1536 378.129 115.189 398.615 115.189 423.858C115.189 449.122 95.1536 469.608 70.4465 469.608Z" fill="#0D0E10"/>
<path d="M402.868 475.415C403.489 482.444 409.103 491.358 418.832 491.358H424.532C426.739 491.358 428.539 489.558 428.539 487.351V362.186H428.518C428.411 360.086 426.653 358.394 424.532 358.394H406.875C404.732 358.394 402.996 360.086 402.868 362.186V362.186V372.365C392.046 359.036 375.011 353.529 357.911 353.529C319.061 353.529 287.539 385.029 287.539 423.901C287.539 462.772 319.039 494.272 357.911 494.272C375.011 494.229 393.653 487.608 402.868 475.415ZM357.996 469.608C333.289 469.608 313.253 449.122 313.253 423.858C313.253 398.594 333.289 378.129 357.996 378.129C382.703 378.129 402.739 398.615 402.739 423.858C402.739 449.122 382.703 469.608 357.996 469.608Z" fill="#0D0E10"/>
<path d="M724.319 475.415C724.94 482.444 730.555 491.358 740.283 491.358H745.983C748.19 491.358 750.012 489.558 750.012 487.351V362.186H749.99C749.883 360.086 748.126 358.394 746.005 358.394H728.347C726.205 358.394 724.469 360.086 724.362 362.186H724.34V372.365C713.519 359.036 696.483 353.529 679.383 353.529C640.512 353.529 609.012 385.029 609.012 423.901C609.012 462.772 640.512 494.272 679.383 494.272C696.462 494.229 715.083 487.608 724.319 475.415ZM679.426 469.608C654.719 469.608 634.683 449.122 634.683 423.858C634.683 398.594 654.719 378.129 679.426 378.129C704.133 378.129 724.169 398.615 724.169 423.858C724.19 449.122 704.155 469.608 679.426 469.608Z" fill="#0D0E10"/>
<path d="M586.683 479.701V414.923C586.683 378.409 563.647 353.787 526.918 353.787C509.39 353.787 493.34 363.837 489.933 372.644C488.84 365.83 485.218 358.673 474.011 358.673H468.29C466.083 358.673 464.283 360.473 464.283 362.701V475.716V475.737V487.651V487.866H464.304C464.411 489.966 466.168 491.658 468.29 491.658H480.247H485.947C486.226 491.658 486.483 491.637 486.74 491.573C486.847 491.551 486.976 491.508 487.083 491.466C487.211 491.423 487.34 491.401 487.468 491.337C487.618 491.273 487.768 491.187 487.918 491.101C487.983 491.058 488.068 491.016 488.133 490.973C488.304 490.866 488.476 490.716 488.626 490.587C488.647 490.566 488.69 490.544 488.711 490.523C488.883 490.351 489.054 490.158 489.183 489.966C489.633 489.366 489.89 488.637 489.933 487.844H489.954V487.63V479.68V477.601V413.916C489.954 394.309 505.854 378.409 525.461 378.409C545.068 378.409 560.968 394.309 560.968 413.916L560.99 475.716V475.694C560.99 475.758 560.99 475.801 560.99 475.866V487.63V487.844H561.011C561.118 489.944 562.876 491.637 564.997 491.637H576.954H582.654C582.933 491.637 583.19 491.616 583.447 491.551C583.554 491.53 583.64 491.487 583.747 491.466C583.897 491.423 584.047 491.38 584.175 491.337C584.325 491.273 584.454 491.187 584.583 491.123C584.668 491.08 584.754 491.037 584.84 490.994C585.011 490.887 585.161 490.758 585.29 490.63C585.333 490.587 585.375 490.566 585.397 490.544C585.568 490.373 585.718 490.201 585.847 490.03C585.847 490.008 585.868 490.008 585.868 489.987C586.297 489.387 586.576 488.658 586.618 487.887H586.64V487.673L586.683 479.701Z" fill="#0D0E10"/>
<path d="M183.182 457.479C194.968 465.644 207.825 469.608 220.189 469.608C231.954 469.608 244.125 463.501 244.125 452.872C244.125 438.686 217.597 436.479 200.947 430.822C184.275 425.165 169.918 413.444 169.918 394.501C169.918 365.486 195.761 353.508 219.889 353.508C235.168 353.508 250.939 358.544 261.182 365.765C264.697 368.444 262.554 371.508 262.554 371.508L252.782 385.458C251.689 387.022 249.761 388.394 247.018 386.679C244.254 384.986 234.611 378.151 219.889 378.151C205.168 378.151 196.297 384.944 196.297 393.365C196.297 403.479 207.825 406.651 221.325 410.101C244.854 416.444 270.504 424.072 270.504 452.894C270.504 478.458 246.589 494.251 220.168 494.251C200.132 494.251 183.097 488.551 168.804 478.051C165.825 475.072 167.904 472.308 167.904 472.308L177.611 458.444C179.604 455.829 182.089 456.729 183.182 457.479Z" fill="#0D0E10"/>
<path d="M436.875 62.015C436.875 96.1078 409.232 123.772 375.139 123.772C341.025 123.772 313.382 96.1292 313.382 62.015C313.382 27.9007 341.025 0.257812 375.139 0.257812C409.232 0.257812 436.875 27.9007 436.875 62.015ZM294.91 139.201C260.818 139.201 233.153 166.844 233.153 200.936C233.153 235.029 260.796 262.694 294.91 262.694C329.025 262.694 356.668 235.051 356.668 200.936C356.668 166.844 329.025 139.201 294.91 139.201ZM455.346 139.201C421.232 139.201 393.589 166.844 393.589 200.958C393.589 235.072 421.232 262.715 455.346 262.715C489.439 262.715 517.103 235.072 517.103 200.958C517.103 166.844 489.46 139.201 455.346 139.201Z" fill="#0D0E10"/>
</svg>
